<svg width="1200" height="430" viewBox="0 0 1200 430" fill="none" xmlns="http://www.w3.org/2000/svg">
  <rect width="1200" height="430" rx="24" fill="#111216"/>
  <text x="60" y="70" fill="#FFFFFF" font-family="Inter, Arial, sans-serif" font-size="28" font-weight="700">Funding readiness flow</text>
  <text x="60" y="102" fill="#A7ADBB" font-family="Inter, Arial, sans-serif" font-size="16">Wallet funds are not the same as venue-ready execution capacity.</text>
  <g font-family="Inter, Arial, sans-serif">
    <rect x="80" y="170" width="185" height="105" rx="12" fill="#20232B" stroke="#3A3E4C"/>
    <text x="106" y="210" fill="#CCFF00" font-size="17" font-weight="700">Wallet balance</text>
    <text x="106" y="238" fill="#FFFFFF" font-size="14">User-controlled funds</text>
    <rect x="325" y="170" width="185" height="105" rx="12" fill="#20232B" stroke="#3A3E4C"/>
    <text x="351" y="210" fill="#CCFF00" font-size="17" font-weight="700">Activation</text>
    <text x="351" y="238" fill="#FFFFFF" font-size="14">Venue setup and approvals</text>
    <rect x="570" y="170" width="185" height="105" rx="12" fill="#20232B" stroke="#3A3E4C"/>
    <text x="596" y="210" fill="#CCFF00" font-size="17" font-weight="700">Venue-ready</text>
    <text x="596" y="238" fill="#FFFFFF" font-size="14">Balance Lotus can route</text>
    <rect x="815" y="170" width="305" height="105" rx="12" fill="#0F251B" stroke="#1E8F5A"/>
    <text x="841" y="210" fill="#CCFF00" font-size="17" font-weight="700">Execution readiness</text>
    <text x="841" y="238" fill="#DDFEE7" font-size="14">Route can submit only if every leg is ready</text>
  </g>
  <g stroke="#CCFF00" stroke-width="3" stroke-linecap="round">
    <path d="M275 222H315"/>
    <path d="M520 222H560"/>
    <path d="M765 222H805"/>
  </g>
  <g fill="#CCFF00">
    <path d="M315 222L304 216V228L315 222Z"/>
    <path d="M560 222L549 216V228L560 222Z"/>
    <path d="M805 222L794 216V228L805 222Z"/>
  </g>
</svg>
